<svg width="12" height="12" viewBox="0 0 12 12" fill="none" xmlns="http://www.w3.org/2000/svg">
<path d="M0.413239 0.413239C0.964235 -0.137754 1.85754 -0.137737 2.40851 0.413239L6 4.00474L9.59149 0.413239C10.1425 -0.137737 11.0358 -0.137756 11.5868 0.413239C12.1378 0.964235 12.1377 1.85755 11.5868 2.40852L7.99527 6.00001L11.5868 9.59149C12.1377 10.1425 12.1378 11.0358 11.5868 11.5868C11.0358 12.1378 10.1425 12.1377 9.59149 11.5867L6 7.99527L2.40851 11.5868C1.85754 12.1378 0.964235 12.1377 0.413239 11.5867C-0.137754 11.0358 -0.137736 10.1425 0.413237 9.59149L4.00473 6.00001L0.413239 2.40852C-0.137737 1.85755 -0.137756 0.964235 0.413239 0.413239Z" fill="#AEAEAE"/>
</svg>
