<svg width="14" height="14" viewBox="0 0 14 14" fill="none" xmlns="http://www.w3.org/2000/svg">
<path d="M7 0C3.14161 0 0 3.14159 0 7C0 10.8612 3.14161 14 7 14C10.8612 14 14 10.8612 14 7C14 3.14159 10.8612 0 7 0ZM11.2476 5.11841L6.1628 10.206C6.04801 10.318 5.8996 10.3768 5.75121 10.3768C5.6028 10.3768 5.45161 10.318 5.3396 10.206L2.7524 7.61881C2.5872 7.4536 2.4976 7.23521 2.4976 7C2.4976 6.7676 2.59 6.5464 2.75521 6.38119C3.0968 6.0396 3.65121 6.0424 3.99 6.38119L5.73439 8.12561C5.73439 8.12561 5.754 8.12561 5.7624 8.12561C5.76521 8.12561 5.76521 8.12561 5.76521 8.12561L10.01 3.8836C10.3516 3.54201 10.906 3.54201 11.2476 3.8808C11.4128 4.046 11.5052 4.2672 11.5052 4.4996C11.5052 4.73479 11.4128 4.9532 11.2476 5.11841Z" fill="#08985C"/>
</svg>
