<svg width="148" height="31" viewBox="0 0 148 31" fill="none" xmlns="http://www.w3.org/2000/svg">
<path d="M42.642 25.979C41.382 25.979 40.248 25.763 39.24 25.331C38.232 24.881 37.44 24.251 36.864 23.441C36.288 22.631 36 21.686 36 20.606H39.294C39.366 21.416 39.681 22.082 40.239 22.604C40.815 23.126 41.616 23.387 42.642 23.387C43.704 23.387 44.532 23.135 45.126 22.631C45.72 22.109 46.017 21.443 46.017 20.633C46.017 20.003 45.828 19.49 45.45 19.094C45.09 18.698 44.631 18.392 44.073 18.176C43.533 17.96 42.777 17.726 41.805 17.474C40.581 17.15 39.582 16.826 38.808 16.502C38.052 16.16 37.404 15.638 36.864 14.936C36.324 14.234 36.054 13.298 36.054 12.128C36.054 11.048 36.324 10.103 36.864 9.293C37.404 8.483 38.16 7.862 39.132 7.43C40.104 6.998 41.229 6.782 42.507 6.782C44.325 6.782 45.81 7.241 46.962 8.159C48.132 9.059 48.78 10.301 48.906 11.885H45.504C45.45 11.201 45.126 10.616 44.532 10.13C43.938 9.644 43.155 9.401 42.183 9.401C41.301 9.401 40.581 9.626 40.023 10.076C39.465 10.526 39.186 11.174 39.186 12.02C39.186 12.596 39.357 13.073 39.699 13.451C40.059 13.811 40.509 14.099 41.049 14.315C41.589 14.531 42.327 14.765 43.263 15.017C44.505 15.359 45.513 15.701 46.287 16.043C47.079 16.385 47.745 16.916 48.285 17.636C48.843 18.338 49.122 19.283 49.122 20.471C49.122 21.425 48.861 22.325 48.339 23.171C47.835 24.017 47.088 24.701 46.098 25.223C45.126 25.727 43.974 25.979 42.642 25.979Z" fill="#2E50E6"/>
<path d="M60.4489 10.67C61.5829 10.67 62.5909 10.913 63.4729 11.399C64.3729 11.885 65.0749 12.605 65.5789 13.559C66.1009 14.513 66.3619 15.665 66.3619 17.015V25.79H63.3109V17.474C63.3109 16.142 62.9779 15.125 62.3119 14.423C61.6459 13.703 60.7369 13.343 59.5849 13.343C58.4329 13.343 57.5149 13.703 56.8309 14.423C56.1649 15.125 55.8319 16.142 55.8319 17.474V25.79H52.7539V5.81H55.8319V12.641C56.3539 12.011 57.0109 11.525 57.8029 11.183C58.6129 10.841 59.4949 10.67 60.4489 10.67Z" fill="#2E50E6"/>
<path d="M69.2621 18.284C69.2621 16.79 69.5681 15.467 70.1801 14.315C70.8101 13.163 71.6561 12.272 72.7181 11.642C73.7981 10.994 74.9861 10.67 76.2821 10.67C77.4521 10.67 78.4691 10.904 79.3331 11.372C80.2151 11.822 80.9171 12.389 81.4391 13.073V10.913H84.5441V25.79H81.4391V23.576C80.9171 24.278 80.2061 24.863 79.3061 25.331C78.4061 25.799 77.3801 26.033 76.2281 26.033C74.9501 26.033 73.7801 25.709 72.7181 25.061C71.6561 24.395 70.8101 23.477 70.1801 22.307C69.5681 21.119 69.2621 19.778 69.2621 18.284ZM81.4391 18.338C81.4391 17.312 81.2231 16.421 80.7911 15.665C80.3771 14.909 79.8281 14.333 79.1441 13.937C78.4601 13.541 77.7221 13.343 76.9301 13.343C76.1381 13.343 75.4001 13.541 74.7161 13.937C74.0321 14.315 73.4741 14.882 73.0421 15.638C72.6281 16.376 72.4211 17.258 72.4211 18.284C72.4211 19.31 72.6281 20.21 73.0421 20.984C73.4741 21.758 74.0321 22.352 74.7161 22.766C75.4181 23.162 76.1561 23.36 76.9301 23.36C77.7221 23.36 78.4601 23.162 79.1441 22.766C79.8281 22.37 80.3771 21.794 80.7911 21.038C81.2231 20.264 81.4391 19.364 81.4391 18.338Z" fill="#2E50E6"/>
<path d="M91.6649 13.073C92.1149 12.317 92.7089 11.732 93.4469 11.318C94.2029 10.886 95.0939 10.67 96.1199 10.67V13.856H95.3369C94.1309 13.856 93.2129 14.162 92.5829 14.774C91.9709 15.386 91.6649 16.448 91.6649 17.96V25.79H88.5869V10.913H91.6649V13.073Z" fill="#2E50E6"/>
<path d="M112.584 17.987C112.584 18.545 112.548 19.049 112.476 19.499H101.109C101.199 20.687 101.64 21.641 102.432 22.361C103.224 23.081 104.196 23.441 105.348 23.441C107.004 23.441 108.174 22.748 108.858 21.362H112.179C111.729 22.73 110.91 23.855 109.722 24.737C108.552 25.601 107.094 26.033 105.348 26.033C103.926 26.033 102.648 25.718 101.514 25.088C100.398 24.44 99.5162 23.54 98.8682 22.388C98.2382 21.218 97.9232 19.868 97.9232 18.338C97.9232 16.808 98.2292 15.467 98.8412 14.315C99.4712 13.145 100.344 12.245 101.46 11.615C102.594 10.985 103.89 10.67 105.348 10.67C106.752 10.67 108.003 10.976 109.101 11.588C110.199 12.2 111.054 13.064 111.666 14.18C112.278 15.278 112.584 16.547 112.584 17.987ZM109.371 17.015C109.353 15.881 108.948 14.972 108.156 14.288C107.364 13.604 106.383 13.262 105.213 13.262C104.151 13.262 103.242 13.604 102.486 14.288C101.73 14.954 101.28 15.863 101.136 17.015H109.371Z" fill="#2E50E6"/>
<path d="M125.954 25.79L118.691 17.393V25.79H115.613V7.025H118.691V15.584L125.981 7.025H129.842L121.688 16.421L129.977 25.79H125.954Z" fill="#2E50E6"/>
<path d="M134.265 8.942C133.707 8.942 133.239 8.753 132.861 8.375C132.483 7.997 132.294 7.529 132.294 6.971C132.294 6.413 132.483 5.945 132.861 5.567C133.239 5.189 133.707 5 134.265 5C134.805 5 135.264 5.189 135.642 5.567C136.02 5.945 136.209 6.413 136.209 6.971C136.209 7.529 136.02 7.997 135.642 8.375C135.264 8.753 134.805 8.942 134.265 8.942ZM135.777 10.913V25.79H132.699V10.913H135.777Z" fill="#2E50E6"/>
<path d="M143.409 13.424V21.659C143.409 22.217 143.535 22.622 143.787 22.874C144.057 23.108 144.507 23.225 145.137 23.225H147.027V25.79H144.597C143.211 25.79 142.149 25.466 141.411 24.818C140.673 24.17 140.304 23.117 140.304 21.659V13.424H138.549V10.913H140.304V7.214H143.409V10.913H147.027V13.424H143.409Z" fill="#2E50E6"/>
<path d="M4 16.5L26 8V22L4 30.5V16.5Z" fill="#2E50E6"/>
<path d="M0 8.5L22 0V14L0 22.5V8.5Z" fill="#DAE1FF"/>
</svg>
